<?xml version="1.0" encoding="utf-8"?>
<!-- Generator: Adobe Illustrator 25.0.1, SVG Export Plug-In . SVG Version: 6.00 Build 0)  -->
<svg version="1.1" id="Layer_1" xmlns="http://www.w3.org/2000/svg" xmlns:xlink="http://www.w3.org/1999/xlink" x="0px" y="0px"
	 viewBox="0 0 500 281.7" style="enable-background:new 0 0 500 281.7;" xml:space="preserve">
<style type="text/css">
	.st0{fill:#FFFFFF;}
</style>
<g>
	<path class="st0" d="M33.1,106.1c-2.5,1.2-4.3,2.8-4.3,5.1c0,3.6,4.4,4.3,9.5,5.6c13.3,2.8,27.6,5.3,44.5,8.9
		c15.3,3.3,26.8,9.8,26.8,23.8c0,19.7-22.5,24-33.7,24H23.2c-9.2,0-18.4-6.1-18.4-16.9c0-12.5,16.1-18.7,25.9-21.5
		c-13-2.3-23.2-5.4-23.2-16.1c0-9.4,8.2-13.6,16.1-15.4c-11.3-4.3-16.6-12.3-16.6-24c0-20.9,16.3-31.4,47.1-31.4
		c3.9,0,7.5,0.2,11.2,0.5c-2.6-3.3-4.9-7.4-4.9-12.5c0-14.5,18.1-19.7,45.7-19.5v21.5c-3.3-0.3-9.4-0.8-15.4-0.8
		c-8.9,0-17.9,1.2-17.9,6.4c0,4.1,3.1,6.2,4.4,6.9c16.1,4.3,24.1,13.6,24.1,28.4c0,20-14.6,28.7-47.3,28.7
		C45.9,107.8,39,107.3,33.1,106.1z M30.9,147.3c0,4.9,4.4,8.5,9.8,8.5h30.1c5.4,0,12.3-2.1,12.3-7.1c0-3.4-3.8-5.3-12-6.9
		c-10.8-2.3-17.2-2.9-30.9-5.3C35.9,138.6,30.9,142.2,30.9,147.3z M33.4,79.3c0,8.5,7.4,12.7,20.7,12.7c14.8,0,21.3-4.8,21.3-12.8
		C75.4,71,68.7,66,54.3,66C40.6,66,33.4,70.8,33.4,79.3z"/>
	<path class="st0" d="M189.6,69.5c-3.9-1.8-7.9-1.8-12-1.5C163.5,69.2,152,81.5,152,98.1v13.5h15.4v21.2h-53.4v-21.2h12.2V71h-12.3
		V50.6H152v14.6c6.7-10.7,16.9-17.1,28.6-17.1c3.6,0,6.4,0.7,9,1.5V69.5z"/>
	<path class="st0" d="M200,111.5h14V71.1h-12.2V50.6H230c7.6-0.2,9.9,5.1,9.9,12v48.9h14v21.2H200L200,111.5L200,111.5z M225.4,7.6
		c9.9,0,15.9,5.9,15.9,14.1c0,8.5-6.1,14.3-15.9,14.3c-9.7,0-15.8-5.8-15.8-14.3C209.7,13.5,215.8,7.6,225.4,7.6z"/>
	<path class="st0" d="M240.8,153.4c4.4,1.5,8.7,2.1,12.8,2.1c10.4,0,16.3-5.6,16.3-18.6V50.6h25.9v87.7c0,25-16.8,35.5-38.4,35.5
		c-7.4,0-14.9-1.1-22-3.4L240.8,153.4z M282.8,7.6c9.7,0,15.8,5.9,15.8,14.1c0,8.5-6.1,14.3-15.8,14.3c-9.9,0-15.8-5.8-15.8-14.3
		C267,13.5,272.9,7.6,282.8,7.6z"/>
	<path class="st0" d="M309.2,132.7v-10.2L357,71.1h-44.8V50.6h84.9v10.2l-47.8,51.4h48.6v20.5L309.2,132.7L309.2,132.7z"/>
	<path class="st0" d="M448.2,48.1c29.1,0,47.3,18.6,47,43.2c0,2.8-0.2,5.4-0.7,7.9h-66c2.8,11.7,14.6,17.7,28.9,17.7
		c9.7,0,22.7-3.4,32.4-8.4l5.3,16.6c-9.9,5.9-25.8,10-40.4,10c-33.5,0-54.5-16.6-54.5-43.5C400.1,65.9,419.8,48.1,448.2,48.1z
		 M467.9,86.1c-0.8-11.3-7.1-19.7-19.7-19.7c-11.7,0-19.7,7.1-20.9,19.7C427.3,86.1,467.9,86.1,467.9,86.1z"/>
	<path class="st0" d="M80.6,271.7v-10.2l47.8-51.4H83.5v-20.5h84.9v10.2l-47.8,51.4h48.6v20.5H80.6z"/>
	<path class="st0" d="M172.2,230.6c0-26.3,21.7-43.5,54.2-43.5s54.4,17.2,54.4,43.5s-21.8,43.5-54.4,43.5S172.2,256.9,172.2,230.6z
		 M254,230.6c0-14.6-10.5-25.3-27.6-25.3c-16.9,0-27.4,10.7-27.4,25.3c0,14.4,10.5,25.3,27.4,25.3C243.5,255.9,254,245.1,254,230.6z
		"/>
	<path class="st0" d="M318.9,220.6v51.1H293v-82.1h17.3l7.1,17.1c14-9.9,29.9-19.5,49.4-19.5c13.6,0,23.1,4.8,23.1,23.2v61.4h-26
		l0.2-50.9c0-10.7-4.8-13.3-13.1-12.6C343,209,331.6,212.8,318.9,220.6z"/>
	<path class="st0" d="M448.2,187.1c29.1,0,47.3,18.6,47,43.2c0,2.8-0.2,5.4-0.7,7.9h-66c2.8,11.7,14.6,17.7,28.9,17.7
		c9.7,0,22.7-3.4,32.4-8.4l5.3,16.6c-9.9,5.9-25.8,10-40.4,10c-33.5,0-54.5-16.6-54.5-43.5C400.1,204.9,419.8,187.1,448.2,187.1z
		 M467.9,225.1c-0.8-11.3-7.1-19.7-19.7-19.7c-11.7,0-19.7,7.1-20.9,19.7H467.9z"/>
</g>
</svg>
